<?xml version="1.0" standalone="no"?><!DOCTYPE svg PUBLIC "-//W3C//DTD SVG 1.1//EN" "http://www.w3.org/Graphics/SVG/1.1/DTD/svg11.dtd"><svg t="1666767805875" class="icon" viewBox="0 0 1024 1024" version="1.1" xmlns="http://www.w3.org/2000/svg" p-id="7537" xmlns:xlink="http://www.w3.org/1999/xlink" width="200" height="200"><path d="M468.269224 198.290337a61.826415 61.826415 0 1 0 87.434228-87.43728 61.826415 61.826415 0 1 0-87.434228 87.43728Z" fill="#13227a" p-id="7538"></path><path d="M855.909434 966.037736h-171.954717c-1.932075-1.932075-3.864151-5.796226-7.728302-7.728302L608.603774 917.735849c210.596226-46.369811 367.09434-231.849057 367.094339-454.037736 0-255.033962-208.664151-463.698113-463.698113-463.698113S48.301887 208.664151 48.301887 463.698113C48.301887 685.886792 204.8 871.366038 415.396226 917.735849l-67.622641 40.573585c-3.864151 1.932075-5.796226 3.864151-7.728302 7.728302H168.090566c-15.456604 0-28.981132 13.524528-28.981132 28.981132s13.524528 28.981132 28.981132 28.981132h687.818868c15.456604 0 28.981132-13.524528 28.981132-28.981132s-11.592453-28.981132-28.981132-28.981132zM106.264151 463.698113c0-224.120755 181.615094-405.735849 405.735849-405.735849s405.735849 181.615094 405.735849 405.735849-181.615094 405.735849-405.735849 405.735849-405.735849-181.615094-405.735849-405.735849z m401.871698 463.698113h7.728302l59.89434 36.709434h-129.449057l61.826415-36.709434z" fill="#13227a" p-id="7539"></path><path d="M799.879245 535.184906c0-158.430189-129.449057-287.879245-287.879245-287.879246S224.120755 376.754717 224.120755 535.184906s129.449057 289.811321 287.879245 289.81132 287.879245-129.449057 287.879245-289.81132z m-517.796226 0c0-127.516981 104.332075-229.916981 229.916981-229.916981s229.916981 104.332075 229.916981 229.916981-102.4 231.849057-229.916981 231.849056-229.916981-104.332075-229.916981-231.849056z" fill="#13227a" p-id="7540"></path></svg>